<svg width="35" height="32" viewBox="0 0 35 32" fill="none" xmlns="http://www.w3.org/2000/svg">
<path d="M30.9537 13.3886H29.8102V13.3333H17.0344V18.6666H25.0569C23.8865 21.7713 20.7415 24 17.0344 24C12.3308 24 8.51719 20.418 8.51719 16C8.51719 11.582 12.3308 7.99996 17.0344 7.99996C19.2056 7.99996 21.1809 8.76929 22.6849 10.026L26.7 6.25463C24.1647 4.03529 20.7735 2.66663 17.0344 2.66663C9.19502 2.66663 2.83905 8.63663 2.83905 16C2.83905 23.3633 9.19502 29.3333 17.0344 29.3333C24.8738 29.3333 31.2298 23.3633 31.2298 16C31.2298 15.106 31.1318 14.2333 30.9537 13.3886Z" fill="#FFC107"/>
<path d="M4.47583 9.79396L9.13971 13.0066C10.4017 10.072 13.4579 7.99996 17.0345 7.99996C19.2056 7.99996 21.1809 8.76929 22.6849 10.026L26.7001 6.25463C24.1648 4.03529 20.7735 2.66663 17.0345 2.66663C11.582 2.66663 6.85355 5.55796 4.47583 9.79396Z" fill="#FF3D00"/>
<path d="M17.0344 29.3332C20.7011 29.3332 24.0327 28.0152 26.5517 25.8719L22.1582 22.3799C20.6851 23.4322 18.8851 24.0013 17.0344 23.9999C13.3422 23.9999 10.2072 21.7886 9.02611 18.7026L4.397 22.0526C6.74633 26.3706 11.5174 29.3332 17.0344 29.3332Z" fill="#4CAF50"/>
<path d="M30.9537 13.3887H29.8103V13.3334H17.0345V18.6667H25.057C24.4971 20.1443 23.4886 21.4355 22.1561 22.3807L22.1583 22.3794L26.5517 25.8714C26.2408 26.1367 31.2298 22.6667 31.2298 16C31.2298 15.106 31.1319 14.2334 30.9537 13.3887Z" fill="#1976D2"/>
</svg>
